<svg xmlns="http://www.w3.org/2000/svg" width="589.768" height="340.983" viewBox="0 0 589.768 340.983">
  <g id="undraw_share_link_qtxe_1_" data-name="undraw_share_link_qtxe (1)" transform="translate(0 -0.041)">
    <rect id="Rectangle_24" data-name="Rectangle 24" width="148.211" height="1.23" transform="translate(441.558 245.701)" fill="#3f3d56"/>
    <path id="Path_67" data-name="Path 67" d="M771.744,380.376l4.3,22.754,9.225,2.46-2.46-27.059Z" transform="translate(-297.135 -145.725)" fill="#fbbebe"/>
    <path id="Path_68" data-name="Path 68" d="M855.744,380.376l4.3,22.754,9.225,2.46-2.46-27.059Z" transform="translate(-329.476 -145.725)" fill="#fbbebe"/>
    <path id="Path_69" data-name="Path 69" d="M898.579,584.25s-9.84-.615-9.84,2.46-4.92,13.53-4.92,13.53-3.69,12.3,6.15,11.07,15.99-12.3,15.99-12.3l-2.46-11.685Z" transform="translate(-414.13 -331.149)" fill="#2f2e41"/>
    <path id="Path_70" data-name="Path 70" d="M984.552,583.175s-6.563-4.219-6.095-1.406.938,10.314,4.219,10.783,13.127,3.282,13.6,4.219,11.721,4.688,11.721-1.406-7.032-10.783-7.032-10.783l-7.97-6.095s-5.157-.469-6.095,2.813S984.552,583.175,984.552,583.175Z" transform="translate(-450.819 -328.941)" fill="#2f2e41"/>
    <path id="Path_71" data-name="Path 71" d="M877.729,336.6s-10.455-15.375-14.145-10.455,9.225,14.145,9.225,14.145Z" transform="translate(-406.345 -231.419)" fill="#fbbebe"/>
    <path id="Path_72" data-name="Path 72" d="M885.685,357.355c-.615-.615-11.685-11.07-11.685-11.07l7.995-5.535,9.225,9.225Z" transform="translate(-410.61 -237.417)" fill="#575a89"/>
    <path id="Path_73" data-name="Path 73" d="M890.859,290.25s-7.995.615-7.38,7.38,5.842,29.212,5.842,29.212l3.075,6.15S903.773,297.63,890.859,290.25Z" transform="translate(-414.247 -217.974)" fill="#575a89"/>
    <path id="Path_74" data-name="Path 74" d="M890.839,234.844l2.214,7.38h27.736l.8-7.995,2.4,7.995h3.567l.8-7.995,2.4,7.995H934.5l-3.527-8.5a68.507,68.507,0,0,1-3.719-12.572,23.685,23.685,0,0,0-23.2-18.905h0q-.49,0-.976.02c-15.546.63-25.5,16.91-19.537,31.279l3.6,8.675H890.1Z" transform="translate(-413.613 -184.092)" fill="#2f2e41"/>
    <path id="Path_75" data-name="Path 75" d="M886.9,359.75s-19.064,15.99-13.53,37.514,7.38,89.172,7.38,89.172l19.065-1.845V399.724l26.444,50.429,4.3,36.284,21.524-3.69-9.84-44.279-18.922-56.442-1.987-16.284Z" transform="translate(-409.979 -244.732)" fill="#2f2e41"/>
    <circle id="Ellipse_20" data-name="Ellipse 20" cx="12.915" cy="12.915" r="12.915" transform="translate(477.227 25.538)" fill="#fbbebe"/>
    <path id="Path_76" data-name="Path 76" d="M905,248.595s5.535,20.294,2.46,22.754,21.524-7.995,21.524-7.995-10.455-11.685-9.225-16.6Z" transform="translate(-422.546 -201.225)" fill="#fbbebe"/>
    <path id="Path_77" data-name="Path 77" d="M922.351,265.159s-9.847,8.47-19.375,9.155c0,0-12.6,6.835-11.989,7.45s2.46,9.225,2.46,9.225,3.075,4.748,3.075,14.76c0,1.23-4.3,18.449-4.3,18.449l36.284,4.92s9.84-31.979,10.455-43.049,4.3-22.754-1.23-23.369S922.351,265.159,922.351,265.159Z" transform="translate(-417.142 -207.335)" fill="#575a89"/>
    <path id="Path_78" data-name="Path 78" d="M959.995,266.258s4.3-3.69,6.765,4.92,12.3,35.669,9.84,41.2-17.219,30.134-17.219,30.134L952,337.6l14.76-27.674-8.61-19.679Z" transform="translate(-440.642 -208.434)" fill="#575a89"/>
    <path id="Path_79" data-name="Path 79" d="M948.15,381.75s-19.064,11.685-12.915,14.145,16.6-10.455,16.6-10.455Z" transform="translate(-433.717 -253.203)" fill="#fbbebe"/>
    <path id="Path_80" data-name="Path 80" d="M774,38.5V51.415h4.92l1.845-5.535.461,5.535h13.683l1.845-5.535.461,5.535H802.9V38.5Z" transform="translate(-298.003 -14.807)" fill="#2f2e41"/>
    <path id="Path_81" data-name="Path 81" d="M894.249,310.25s-1.23,12.3.615,14.76S894.249,310.25,894.249,310.25Z" transform="translate(-418.252 -225.674)" opacity="0.2"/>
    <rect id="Rectangle_25" data-name="Rectangle 25" width="260.753" height="1.23" transform="translate(108.852 299.205)" fill="#3f3d56"/>
    <path id="Path_82" data-name="Path 82" d="M582.434,455.452l-75.655,75.655a61.674,61.674,0,0,1-87.217,0c-1.021-1.021-2-2.072-2.94-3.155a59.574,59.574,0,0,1-4.3-5.535,60.747,60.747,0,0,1-9.741-23.369q-.526-2.74-.793-5.535-.286-2.98-.289-6.015a61.96,61.96,0,0,1,2.288-16.74q.784-2.813,1.839-5.535a61.538,61.538,0,0,1,13.936-21.334l33.006-33.006a9.223,9.223,0,0,1,13.044,13.044l-33.006,33.006a43.581,43.581,0,0,0-6.5,8.29,42.917,42.917,0,0,0-6.156,22.275,44.306,44.306,0,0,0,.412,6.015,42.079,42.079,0,0,0,1.144,5.535,43.215,43.215,0,0,0,72.23,19.015l19.015-19.015,33.824-33.824,22.816-22.816a43.3,43.3,0,0,0,4.84-55.361,9.227,9.227,0,1,1,15.135-10.56A61.779,61.779,0,0,1,582.434,455.452Z" transform="translate(-228.69 -249.656)" fill="#3f3d56"/>
    <path id="Path_83" data-name="Path 83" d="M763.933,234.436q0,.683-.018,1.365a61.39,61.39,0,0,1-5.123,23.369,59.57,59.57,0,0,1-2.768,5.535,61.842,61.842,0,0,1-10.153,13.339l-33.006,33.006a9.223,9.223,0,1,1-13.044-13.044L732.828,265c.1-.1.2-.2.289-.3a42.972,42.972,0,0,0,12.343-28.9c.018-.455.024-.91.024-1.365q0-2.1-.2-4.17a43.178,43.178,0,0,0-12.46-26.4c-.658-.658-1.328-1.292-2.023-1.894a43.227,43.227,0,0,0-57.083,0c-.695.6-1.365,1.236-2.023,1.894l-75.655,75.655a43.279,43.279,0,0,0,0,61.129A9.223,9.223,0,0,1,583,353.7a61.741,61.741,0,0,1,0-87.217l75.655-75.655a61.736,61.736,0,0,1,96.066,11.15,59.212,59.212,0,0,1,3.056,5.535,61.151,61.151,0,0,1,6.015,22.754Q763.93,232.342,763.933,234.436Z" transform="translate(-291.627 -172.75)" fill="#3f3d56"/>
    <path id="Path_84" data-name="Path 84" d="M236.06,686.363c-2.817,10.414-12.467,16.864-12.467,16.864s-5.082-10.435-2.265-20.849S233.8,665.513,233.8,665.513,238.877,675.948,236.06,686.363Z" transform="translate(-158.993 -362.456)" fill="#3f3d56"/>
    <path id="Path_85" data-name="Path 85" d="M203.607,686.363c2.817,10.414,12.467,16.864,12.467,16.864s5.082-10.435,2.265-20.849-12.467-16.865-12.467-16.865S200.79,675.948,203.607,686.363Z" transform="translate(-152.17 -362.456)" fill="#3f3d56"/>
    <path id="Path_86" data-name="Path 86" d="M198.776,690.668c7.731,7.526,8.675,19.094,8.675,19.094s-11.59-.633-19.32-8.158-8.675-19.094-8.675-19.094S191.045,683.143,198.776,690.668Z" transform="translate(-143.199 -369.001)" fill="#3f3d56"/>
    <path id="Path_87" data-name="Path 87" d="M233.653,690.668c-7.731,7.526-8.675,19.094-8.675,19.094s11.59-.633,19.32-8.158,8.675-19.094,8.675-19.094S241.383,683.143,233.653,690.668Z" transform="translate(-160.726 -369.001)" fill="#3f3d56"/>
    <path id="Path_88" data-name="Path 88" d="M788.1,263.541a12.44,12.44,0,0,1-.245,2.457,12.325,12.325,0,1,1,.245-2.457Z" transform="translate(-368.066 -202.95)" fill="#3f3d56"/>
    <path id="Path_89" data-name="Path 89" d="M493.1,566.541a12.445,12.445,0,0,1-.245,2.457,12.325,12.325,0,1,1,.245-2.457Z" transform="translate(-254.486 -319.61)" fill="#3f3d56"/>
    <rect id="Rectangle_26" data-name="Rectangle 26" width="142.061" height="1.23" transform="translate(0 339.794)" fill="#3f3d56"/>
    <path id="Path_90" data-name="Path 90" d="M695.715,220.25h26.217c-.695.6-1.365,1.236-2.023,1.894l-3.641,3.641H690.18Z" transform="translate(-339.837 -191.023)" fill="#3f3d56"/>
    <path id="Path_91" data-name="Path 91" d="M861.6,225.785h-21.7a43.167,43.167,0,0,0-3.253-3.641c-.658-.658-1.328-1.291-2.023-1.894h23.917A59.2,59.2,0,0,1,861.6,225.785Z" transform="translate(-395.452 -191.023)" fill="#3f3d56"/>
    <path id="Path_92" data-name="Path 92" d="M529.215,93.5H555.3l-5.535,5.535H523.68Z" transform="translate(-201.626 -35.983)" fill="#3f3d56"/>
    <path id="Path_93" data-name="Path 93" d="M787.712,266.25a12.409,12.409,0,0,1,.141,5.535H763.746a12.405,12.405,0,0,1,.141-5.535Z" transform="translate(-368.066 -208.733)" fill="#3f3d56"/>
    <path id="Path_94" data-name="Path 94" d="M876.826,270.42q0,.683-.018,1.365H858.352c.018-.455.025-.91.025-1.365q0-2.1-.2-4.17h18.5Q876.823,268.326,876.826,270.42Z" transform="translate(-404.519 -208.733)" fill="#3f3d56"/>
    <path id="Path_95" data-name="Path 95" d="M482.215,140.5H508.3l-5.535,5.535H476.68Z" transform="translate(-183.53 -54.079)" fill="#3f3d56"/>
    <path id="Path_96" data-name="Path 96" d="M864.065,313.25a59.536,59.536,0,0,1-2.767,5.535H838.39A42.709,42.709,0,0,0,843,313.25Z" transform="translate(-396.9 -226.829)" fill="#3f3d56"/>
    <path id="Path_97" data-name="Path 97" d="M427.538,523.25a42.9,42.9,0,0,0-2.81,5.535H405.22q.784-2.814,1.839-5.535Z" transform="translate(-230.122 -307.683)" fill="#3f3d56"/>
    <path id="Path_98" data-name="Path 98" d="M539.522,350.5l-5.535,5.535H507.9l5.535-5.535Z" transform="translate(-195.55 -134.933)" fill="#3f3d56"/>
    <path id="Path_99" data-name="Path 99" d="M421.686,574.785H402.763q-.526-2.74-.793-5.535h18.573A42.084,42.084,0,0,0,421.686,574.785Z" transform="translate(-228.871 -325.394)" fill="#3f3d56"/>
    <path id="Path_100" data-name="Path 100" d="M493.1,572.325a12.445,12.445,0,0,1-.245,2.457l-24.108,0a12.406,12.406,0,0,1,.141-5.535h23.824A12.387,12.387,0,0,1,493.1,572.325Z" transform="translate(-254.486 -325.394)" fill="#3f3d56"/>
    <path id="Path_101" data-name="Path 101" d="M493.522,396.5l-5.535,5.535H461.9l5.535-5.535Z" transform="translate(-177.839 -152.644)" fill="#3f3d56"/>
    <path id="Path_102" data-name="Path 102" d="M454.671,621.785H423.4a59.571,59.571,0,0,1-4.3-5.535h25.362a42.793,42.793,0,0,0,10.209,5.535Z" transform="translate(-235.466 -343.489)" fill="#3f3d56"/>
    <path id="Path_103" data-name="Path 103" d="M563.642,616.25l-5.535,5.535H526.62a42.789,42.789,0,0,0,10.209-5.535Z" transform="translate(-276.863 -343.489)" fill="#3f3d56"/>
    <path id="Path_104" data-name="Path 104" d="M413.38,337.26c-4.7-7.945-14-8.315-14-8.315s-9.064-1.159-14.879,10.941c-5.42,11.278-12.9,22.167-1.2,24.807l2.113-6.575,1.308,7.065a45.757,45.757,0,0,0,5,.086c12.525-.4,24.453.118,24.069-4.376C415.276,354.916,417.9,344.9,413.38,337.26Z" transform="translate(-219.295 -232.86)" fill="#2f2e41"/>
    <path id="Path_105" data-name="Path 105" d="M260.5,454.23l.615,15.99h11.07L271.57,453Z" transform="translate(-100.297 -174.397)" fill="#fbbebe"/>
    <path id="Path_106" data-name="Path 106" d="M406.108,442.595l-1.119,3.721-14.5,48.172-1.6,5.3,1.23,56.578-15.375,1.845s-.449-5.941-1.107-14.71c-1.322-17.367-3.487-45.847-4.741-61.345-.461-5.732-.793-9.686-.916-10.658-.615-4.92,7.38-29.519,7.38-29.519l15.99-1.23Z" transform="translate(-215.771 -275.919)" fill="#2f2e41"/>
    <path id="Path_107" data-name="Path 107" d="M372.312,649.121s-4.3-4.92-4.92-1.23-7.995,17.835-7.995,17.835-21.524,14.145-3.075,15.375c0,0,9.225-1.23,12.3-6.15,0,0,4.92-3.075,6.15-3.075s8.61-2.46,7.38-6.15-.615-17.219-.615-17.219Z" transform="translate(-208.419 -355.143)" fill="#2f2e41"/>
    <path id="Path_108" data-name="Path 108" d="M265.5,427.15l5.535,10.455,8.61-4.3L274.11,421Z" transform="translate(-102.222 -162.076)" fill="#fbbebe"/>
    <path id="Path_109" data-name="Path 109" d="M375.342,525.1s-4.588-10.024-5.842-25.522c8.9-9.95,19.679-20.909,19.679-20.909l12.915-.615,4-.307c.935,9.348-6.974,21.389-15.006,30.983A171.688,171.688,0,0,1,375.342,525.1Z" transform="translate(-216.369 -290.164)" opacity="0.2"/>
    <path id="Path_110" data-name="Path 110" d="M383.49,465.274s-39.359,34.439-33.824,48.584,20.909,31.364,20.909,31.364l11.878-7.089-11.263-26.12s4.722-4.187,10.469-10.392c9.353-10.1,21.422-25.535,20.28-36.962l-.615-20.909-10.455,1.23Z" transform="translate(-208.527 -277.074)" fill="#2f2e41"/>
    <path id="Path_111" data-name="Path 111" d="M396.652,614.723s-4.3,0-3.69,3.69,1.845,9.84,1.845,9.84-4.92,28.9,6.765,22.139,8.61-24.6,8.61-24.6,4.3-11.07-1.23-12.3-7.38-2.46-7.995-1.845S396.652,614.723,396.652,614.723Z" transform="translate(-225.38 -341.654)" fill="#2f2e41"/>
    <circle id="Ellipse_21" data-name="Ellipse 21" cx="11.07" cy="11.07" r="11.07" transform="translate(168.813 100.258)" fill="#fbbebe"/>
    <path id="Path_112" data-name="Path 112" d="M404.46,360.75s4.92,12.915,3.075,13.53-5.535,3.69-5.535,3.69l6.15,5.535,15.99-8.61s-7.38-9.84-6.765-14.145Z" transform="translate(-228.882 -245.117)" fill="#fbbebe"/>
    <path id="Path_113" data-name="Path 113" d="M413.528,379.75s-12.868,6.344-17.5,2.249c0,0-7.71-.4-8.94,3.9s1.23,7.995-1.845,9.225-5.227,4.612-3.382,10.147,1.537,6.457-.922,8.3-4.92,5.535-4.92,6.765-2.46,1.23-1.23,2.46-1.23,0,1.23,1.23,9.225-9.84,14.145-4.3,20.294,14.76,21.524,9.225,4.92-19.064,4.92-19.064,12.915-23.984,9.225-26.444S413.528,379.75,413.528,379.75Z" transform="translate(-218.271 -252.433)" fill="#cfcce0"/>
    <path id="Path_114" data-name="Path 114" d="M424.735,449.648s-6.765-1.23-8.61,3.075-12.3,14.145-5.535,14.76,11.685-10.455,11.685-10.455l6.765-1.23Z" transform="translate(-231.322 -279.282)" fill="#fbbebe"/>
    <path id="Path_115" data-name="Path 115" d="M440.995,385.75l8.043.448s3.642,3.857,4.257,7.547,12.3,31.364,4.92,34.439-23.369,4.92-23.369,4.92L433,424.494l10.455-3.69-7.38-15.375Z" transform="translate(-240.818 -254.743)" fill="#cfcce0"/>
    <path id="Path_116" data-name="Path 116" d="M264.845,375.57l10.116,25.29L263,375.57l10.455-11.07Z" transform="translate(-101.26 -140.323)" opacity="0.2"/>
    <path id="Path_117" data-name="Path 117" d="M256.143,427.766l4.217,5.371h-3.075Z" transform="translate(-98.619 -164.682)" opacity="0.2"/>
    <circle id="Ellipse_22" data-name="Ellipse 22" cx="6.726" cy="6.726" r="6.726" transform="translate(174.494 89.399)" fill="#2f2e41"/>
    <path id="Path_118" data-name="Path 118" d="M402.2,321.94a6.726,6.726,0,0,1,6.017-6.688,6.8,6.8,0,0,0-.707-.038,6.726,6.726,0,1,0,.708,13.414,6.726,6.726,0,0,1-6.018-6.688Z" transform="translate(-228.414 -227.585)" fill="#2f2e41"/>
    <path id="Path_119" data-name="Path 119" d="M296.871,165.475l-9.19-4.813-12.691,1.969-2.626,11.6,6.537-.252,1.826-4.261v4.19l3.016-.116,1.75-6.783,1.094,7.221,10.722-.219Z" transform="translate(-104.865 -61.842)" fill="#2f2e41"/>
  </g>
</svg>
